# xmcd
#
# Track frame offsets:
#	150
#	12267
#	29781
#	41211
#	53731
#	68176
#	82051
#	94412
#	107475
#	122902
#	138506
#
# Disc length: 2083 seconds
#
# Revision: 0
# Processed by: cddbd v1.4PL0 Copyright (c) Steve Scherf et al.
# Submitted via: dBpowerAMP V4.0
#
DISCID=9f08210b
DTITLE=Jeff Best - Bud's A Little Wiser
DYEAR=2002
DGENRE=Country
TTITLE0=Hard Job Loving Her
TTITLE1=Sunday Best
TTITLE2=Losin' Ana
TTITLE3=Definte Possibilities
TTITLE4=He Smiled
TTITLE5=Goodbye Walk
TTITLE6=Bud's A Little Wiser
TTITLE7=Somebody's Drinking
TTITLE8=Gravity
TTITLE9=Driving Under the Influence of Love
TTITLE10=On The Other Side
EXTD=Currnetly unsigned by a major label. Met Jeff in Nashville in June, 2002.
EXTT0=
EXTT1=
EXTT2=
EXTT3=
EXTT4=
EXTT5=
EXTT6=
EXTT7=
EXTT8=
EXTT9=
EXTT10=
PLAYORDER=
